<?xml version="1.0" standalone="no"?>
<!DOCTYPE svg PUBLIC "-//W3C//DTD SVG 20010904//EN"
 "http://www.w3.org/TR/2001/REC-SVG-20010904/DTD/svg10.dtd">
<svg version="1.0" xmlns="http://www.w3.org/2000/svg"
 width="700.000000pt" height="700.000000pt" viewBox="0 0 700.000000 700.000000"
 preserveAspectRatio="xMidYMid meet">
<metadata>
Created by potrace 1.14, written by Peter Selinger 2001-2017
</metadata>
<g transform="translate(0.000000,700.000000) scale(0.100000,-0.100000)"
fill="#000000" stroke="none">
<path d="M2601 4244 c-29 -20 -49 -68 -43 -100 14 -72 113 -100 165 -46 78 81
-30 210 -122 146z m104 -29 c27 -26 31 -54 14 -88 -16 -31 -28 -37 -72 -37
-31 0 -40 5 -56 31 -19 31 -19 44 1 86 19 39 79 43 113 8z"/>
<path d="M2619 4213 c-7 -56 -4 -103 8 -103 7 0 13 10 14 23 l0 22 16 -22 c8
-13 22 -23 29 -23 12 0 11 5 -2 25 -10 15 -12 25 -5 25 17 0 13 47 -5 54 -22
8 -54 8 -55 -1z m51 -28 c0 -8 -7 -15 -15 -15 -8 0 -15 7 -15 15 0 8 7 15 15
15 8 0 15 -7 15 -15z"/>
<path d="M1786 4215 c-290 -60 -508 -232 -607 -479 l-16 -40 -16 35 c-8 18
-30 68 -47 109 -17 41 -35 84 -41 95 -5 11 -31 72 -58 135 l-50 115 -106 0
-106 0 -100 -230 c-54 -126 -103 -239 -109 -250 -5 -11 -100 -229 -211 -485
-110 -256 -221 -510 -244 -565 l-44 -100 121 -3 c67 -1 125 1 129 5 10 12 124
289 354 862 174 432 204 501 214 483 6 -11 40 -94 75 -184 176 -449 290 -728
319 -782 85 -160 280 -303 487 -357 65 -16 119 -22 225 -24 217 -4 386 28 548
104 l67 31 0 390 0 390 -277 0 -277 0 54 -56 c148 -153 128 -138 200 -140 36
-1 67 -2 70 -3 3 -1 5 -100 6 -220 l0 -219 -25 -12 c-131 -61 -370 -83 -511
-46 -216 56 -368 212 -427 436 -23 88 -23 273 0 359 62 230 226 397 442 450
69 17 228 15 300 -4 80 -21 191 -76 239 -121 l40 -36 73 77 c40 43 73 83 73
90 0 17 -118 96 -195 130 -117 51 -190 66 -350 70 -106 3 -170 0 -219 -10z"/>
<path d="M4555 4224 c-87 -20 -117 -29 -163 -45 -238 -85 -439 -300 -511 -544
-26 -90 -32 -132 -32 -229 0 -239 74 -428 230 -589 178 -185 390 -270 651
-262 298 10 556 166 707 426 18 32 83 190 83 204 0 3 -98 5 -218 5 l-217 0
-25 -47 c-36 -68 -129 -159 -192 -188 -159 -73 -343 -39 -468 86 -60 60 -117
172 -131 259 -19 114 3 263 49 340 99 161 219 231 390 227 75 -2 96 -7 155
-35 80 -39 164 -121 198 -193 l24 -49 65 0 c36 -1 131 -1 212 -2 82 -1 151 1
154 5 3 3 -2 32 -12 64 -82 270 -338 497 -629 559 -38 8 -293 14 -320 8z"/>
<path d="M5650 3421 l0 -808 78 1 77 1 5 713 5 712 42 -62 c22 -35 197 -295
388 -578 191 -283 388 -576 438 -651 l92 -136 80 1 80 1 2 808 3 808 -82 -3
-82 -3 0 -668 c0 -509 -3 -664 -12 -655 -6 7 -108 157 -226 333 -118 176 -253
376 -300 445 -46 69 -148 221 -227 338 l-142 212 -110 0 -109 0 0 -809z"/>
<path d="M2884 4202 l-22 -3 0 -807 -1 -807 197 0 197 0 2 295 c1 162 2 301 2
308 1 9 55 12 236 12 l235 0 -2 182 -3 183 -227 0 c-124 0 -230 3 -234 8 -4 4
-7 49 -6 100 0 50 1 109 2 129 l0 37 236 0 c130 0 239 3 243 6 7 8 8 355 1
356 -15 2 -838 4 -856 1z"/>
<path d="M804 3242 c-1 -36 -14 -75 -58 -164 -82 -171 -85 -237 -11 -308 l34
-33 -1 49 c-1 41 7 67 55 164 61 122 72 167 55 226 -10 37 -55 114 -67 114 -3
0 -6 -21 -7 -48z"/>
<path d="M873 2949 c-1 -17 -18 -63 -37 -102 -45 -95 -50 -148 -17 -185 24
-28 31 -28 31 3 0 14 16 58 37 98 41 82 47 136 18 185 -24 40 -29 40 -32 1z"/>
</g>
</svg>
