<svg xmlns="http://www.w3.org/2000/svg" width="501" height="403" overflow="visible"><path fill="#fff" stroke="#000" stroke-miterlimit="10" d="M.5.5h500v402H.5z"/><path d="M151.1 297.8s-14.9-9.1-14.6-24.7c.3-15.6 17.9-40 19.7-49.4 1.8-9.5 0-14.6 0-14.6s14.2 12.4 12.4 31c-1.3 13.3-13.5 29.2-17.3 38.7-3.8 9.5-.2 19-.2 19M164 314.6s-9.4-5.8-9.2-15.6c.2-9.8 11.3-25.2 12.4-31.1 1.1-6 0-9.2 0-9.2s9 7.8 7.8 19.5c-.8 8.3-8.5 18.4-10.9 24.4-2.4 6-.1 12-.1 12"/><path d="M435.9 181.6h-86.2l29.7 30.2H402.2V282.7c-7.4 4.1-16.2 7.2-26.3 9.4-10.1 2.2-21.1 3.2-33.1 3.2-15.1 0-28.8-2.6-41-7.9-12.2-5.3-22.5-12.5-30.9-21.8-8.4-9.2-14.9-20.1-19.4-32.6-4.6-12.5-6.8-25.8-6.8-39.9 0-13.9 2.3-27 6.8-39.4 4.5-12.3 11-23.2 19.4-32.6 8.4-9.4 18.6-16.7 30.6-22.1 12-5.4 25.4-8.1 40.3-8.1 14.6 0 27.9 2.5 39.7 7.6 11.9 5 21.6 11.8 29.3 20.1l24.8-25.9c-10.6-10.1-23.8-18.1-39.7-24.1-16-6-34.1-9-54.5-9-19.4 0-37.4 3.2-54 9.7-16.5 6.5-30.9 15.5-43 27.2-12.1 11.6-21.6 25.7-28.4 42.1-1 2.4-1.9 4.8-2.7 7.2l-34.2-79.7h-32.4L33.3 327.3h39.6l28.5-69.1L114 227l47.8-119.4L209.5 227s12.1 31.8 17.3 40.4c4.3 7.2 9.8 15.2 17.1 22.3 11.5 11.4 25.1 20.3 40.9 26.8l2.1.9c16.7 6.6 34.9 9.9 54.9 9.9 18.7 0 36-1.9 51.8-5.8 15.8-3.8 30.5-9.4 43.9-16.6V181.7h-1.6z"/><g><path d="M462.4 90.7c.9 0 1.7-.2 2.5-.5s1.2-1 1.2-2c0-.9-.4-1.6-1.1-1.9-.7-.3-1.5-.5-2.3-.5H460v4.8h2.4zm-5.5-7.4h6c.8 0 1.6.1 2.3.3.8.2 1.4.5 2 .9.6.4 1.1.9 1.4 1.5.4.6.5 1.4.5 2.3 0 1.2-.4 2.3-1.1 3s-1.7 1.3-2.9 1.6l4.6 7.4H466l-4-7.1h-2v7.1h-3.1v-17zm-6.8 8.5c0 1.7.3 3.4 1 4.9.7 1.5 1.6 2.9 2.7 4.1 1.2 1.2 2.5 2.1 4.1 2.8 1.5.7 3.2 1 5 1 1.8 0 3.4-.3 5-1s2.9-1.6 4.1-2.8c1.2-1.2 2.1-2.5 2.7-4.1.7-1.6 1-3.2 1-4.9 0-1.8-.3-3.4-1-5-.7-1.5-1.6-2.9-2.7-4.1-1.2-1.2-2.5-2.1-4.1-2.7-1.6-.7-3.2-1-5-1-1.8 0-3.4.3-5 1s-2.9 1.6-4.1 2.7c-1.2 1.2-2.1 2.5-2.7 4.1-.7 1.6-1 3.3-1 5m-2.4 0c0-2.1.4-4 1.2-5.9.8-1.8 1.9-3.4 3.3-4.8 1.4-1.3 3-2.4 4.8-3.2 1.8-.8 3.8-1.2 5.9-1.2 2.1 0 4 .4 5.9 1.2 1.8.8 3.4 1.9 4.8 3.2 1.4 1.4 2.5 2.9 3.3 4.8.8 1.8 1.2 3.8 1.2 5.9 0 2.1-.4 4-1.2 5.8-.8 1.8-1.9 3.4-3.3 4.8-1.4 1.3-3 2.4-4.8 3.2-1.8.8-3.8 1.2-5.9 1.2-2.1 0-4-.4-5.9-1.2-1.8-.8-3.4-1.8-4.8-3.2-1.4-1.4-2.5-2.9-3.3-4.8-.8-1.7-1.2-3.7-1.2-5.8"/></g></svg>